<svg xmlns="http://www.w3.org/2000/svg" xmlns:xlink="http://www.w3.org/1999/xlink" id="Layer_1" x="0px" y="0px" viewBox="0 0 432 216" style="enable-background:new 0 0 432 216;" xml:space="preserve"><style type="text/css">	.st0{fill:#FFFFFF;}</style><path class="st0" d="M126.3,114.7c-0.2,0.4,0.3-0.7,0.4-1.1c2.5-7.5,5.6-9.9,9.6-24.6c1.8-6.5,2.2-7.1,1.8-9.6 c-0.6-2.5-4.8-0.2-7.6,3.2c4.9,1.3-11.2,39-11.2,39c-0.1,2.5,0.4,3.6,1.1,3.7c2.2,2.9,27.2-2.1,24.1-14.2 C142.9,104.8,134.3,100.8,126.3,114.7z M125,121.7c4.8-5.5,11.4-14.9,14.2-9.4C141.7,118.2,131.4,119.8,125,121.7z"></path><path class="st0" d="M218,157.4c-0.3-0.2-0.6-0.2-1.1,0.1c-2.4,1.8-4.7,3.4-8.6,3.4c-7.2,0-12.6-6-12.6-13c0-7,5.5-13.1,12.6-13.1 c3.1,0,6.3,1.4,8.6,3.4c0.4,0.4,0.8,0.5,1.2,0.1l1.2-1.2c0.4-0.4,0.3-0.9,0-1.3c-3.1-2.6-6.4-4.2-11-4.2c-9.1,0-16.4,7.3-16.4,16.4 s7.3,16.3,16.4,16.3c4,0,7.9-1.4,11-4.4c0.3-0.3,0.4-0.9,0.1-1.2L218,157.4z"></path><path class="st0" d="M264.2,141.7c0-5.4-4.4-9.6-9.9-9.6h-11.7c-0.5,0-0.9,0.4-0.9,0.9v30c0,0.4,0.4,0.9,0.9,0.9h1.8 c0.4,0,0.9-0.4,0.9-0.9v-11.6h8.7l6,12c0.1,0.2,0.3,0.4,0.7,0.4h2.3c0.8,0,1.1-0.7,0.8-1.3l-6.2-11.5 C261.5,149.4,264.2,145.9,264.2,141.7z M254.1,148.4h-8.8v-13h8.8c3.5,0,6.5,2.9,6.5,6.4C260.6,145.5,257.6,148.4,254.1,148.4z"></path><path class="st0" d="M298.5,132.1c-0.1-0.3-0.4-0.5-0.8-0.5h-0.5c-0.4,0-0.6,0.2-0.8,0.5l-13.8,30.5c-0.3,0.6,0.1,1.2,0.8,1.2h1.8 c0.4,0,0.7-0.3,0.8-0.5l3.3-7.5h16.1l3.4,7.5c0.1,0.2,0.4,0.5,0.8,0.5h1.8c0.7,0,1-0.6,0.8-1.2L298.5,132.1z M290.7,153l6.6-14.9 h0.4c2.2,4.9,4.4,9.9,6.6,14.9H290.7z"></path><path class="st0" d="M357.5,132.1H356c-0.5,0-0.9,0.4-0.9,0.9v24.2c0,0,0,0-0.1,0l-20.4-25.5h-1.1c-0.5,0-0.9,0.4-0.9,0.8V163 c0,0.4,0.4,0.9,0.9,0.9h1.6c0.5,0,0.9-0.4,0.9-0.9v-24.6h0l20.8,26h0.8c0.5,0,0.9-0.4,0.9-0.8V133 C358.4,132.5,358,132.1,357.5,132.1z"></path><path class="st0" d="M401.8,135.1c0.5,0,0.9-0.4,0.9-0.9v-1.3c0-0.4-0.4-0.9-0.9-0.9h-17.9c-0.5,0-0.9,0.4-0.9,0.9v30 c0,0.4,0.4,0.9,0.9,0.9h17.9c0.5,0,0.9-0.4,0.9-0.9v-1.3c0-0.4-0.4-0.9-0.9-0.9h-15.2v-11.6h13c0.5,0,0.9-0.4,0.9-0.9v-1.3 c0-0.4-0.4-0.9-0.9-0.9h-13v-11.1L401.8,135.1L401.8,135.1z"></path><path class="st0" d="M93.9,121.4c1.1,7.1,9.6,5.6,14,2.9c3.4-2.2,6.9-5.1,7.6-9.6c0.4-3.5-1.7-6.9-5.2-7.7c-4.2-1.1-8,0.9-11.3,3 c-0.7,0.4-0.8,1.4-0.3,2c0.3,0.4,0.9,0.6,1.4,0.5C96.8,114.5,93.7,117.3,93.9,121.4z M103.1,110.7c-0.5,0.3-1,0.6-1.5,0.9 C102.1,111.2,102.6,110.9,103.1,110.7z M104.1,112c0.8-0.5,0.1-1.8-0.7-1.4c1.8-0.8,3.9-1.2,5.6-0.3c1.8,1.6,2,4,0.2,5.8 c-2.6,2.8-6.8,6.2-10.6,6C94.4,119.4,101.4,113.8,104.1,112z"></path><path class="st0" d="M174,105.7c-4.6,6-12.1,9.7-19.3,11.8c0.4-2.5,2.6-5.4,4.1-7.6c1.1-1.4-0.9-3.2-2.2-2c-1.3,1.2-2.5,2.3-3.6,3.7 c-1.4,1.9-3.5,4.4-2.8,7.7c0.5,2.4,3.6,3.6,5.6,3.1c5.7-1.2,11.5-3.1,16.4-6.3c-1.5,7.8-4.4,15.4-7,22.8 c-4.4,9.9-8.5,20.9-17.2,27.7c-1.6,2.1,1.6,4.4,3.1,2.4c3.6-4.6,7.8-8.3,11.1-13.1c6.3-9.4,10.1-20.2,13.3-31 c1.6-5.4,2.6-10.8,4.1-16.4C180.5,105.1,176.2,103,174,105.7z"></path><path class="st0" d="M345.7,98.2c0.5-0.2,1.9-0.3,2.1-1l0.5-1.3c0.4-0.9-0.6-2-1.5-1.6c-22.8,7.2-46.8,10.6-70.6,12.7 c-23.2,1.1-48.6,5.7-69.9-5.9c-2.7-0.9-4.8,0.6-6.7,1.7c-2.5,1.7-4.7,3.6-6.8,5.7c0.1-1.3,0.2-2.7,0.2-4c0-0.3-0.1-0.6-0.3-0.9 c-0.5-0.6-1.4-0.8-2-0.3c-0.6,0.4-1.3,1-1.2,1.8c-1.5,3.3-3.9,7.6-1,10.3c0.9,0.8,4.5,1.2,5.4,0.2c3.8-3.7,5.9-8.3,10.8-10.1 c7.5,5.3,24.1,8.8,35.5,8c34.8-0.9,69.8-4.5,103.2-14.4C343.5,98.9,345.7,98.2,345.7,98.2z"></path><path class="st0" d="M77.4,139.2C65.6,134,65,133,62.9,132.4c0-0.1,0.1-0.2,0.1-0.4c2.4-8.1,6.8-24.5,6.8-24.5s6.6-3.7,16.7-9.3 c16.3-9,45.1-29.1,52.2-46.3c4.6-12.1-5.5-21.3-16.8-22.4c-18.3-1.5-35.3,6.9-51.1,14.9C47.5,56.8,28.9,68,16.6,92.3 c-1.8,4.1,1.7,9.2,3.2,5.1c2.7-7.6,5.9-13.4,11.4-19.5c17.3-18.7,41.4-31.3,65.4-39c10.6-2.8,25-6.3,33.5,2.3 c4.8,5.8-0.2,13.7-3.9,19c-13.5,16.2-36.4,29.2-42.7,33c-6.2,3.9-11.9,6.7-11.9,6.7s4.7-23.4,5.4-35.5c0.1-4.5-6.6-4.7-6.8-0.2 c-0.4,10.9-2.5,22.4-4.7,33.3c-0.4,2-0.9,4-1.3,6c-1.6,0.8-3.2,1.7-4.8,2.5c-6.8,4-14.4,8.2-15.5,14.7c-1,6.5,3,11.2,11.4,15.9 c-4.3,14.2-9.2,28.3-14.3,42.1L35,194.6c-0.5,1.3,0.1,2.9,1.5,3.4c1.3,0.5,2.9-0.1,3.4-1.5c7.5-18.6,15.2-39,21.3-58.4 c1.9,0.5,1.1,0.4,16.2,6.7c40.8,17.1,57.4,21.4,58.6,21.3s2.1-1.6,0.4-2.2C125.9,159.8,133.3,164,77.4,139.2z M49.3,122.2 c-0.1-3.1,7.4-7.2,13.1-10.7c-1.6,6.4-3.3,12.7-5.2,19.1C50.9,127.7,49.5,125.3,49.3,122.2z"></path></svg>